<svg xmlns="http://www.w3.org/2000/svg" width="14.267" height="16.4" viewBox="0 0 14.267 16.4">
  <g id="avatar-line" transform="translate(-4.8 -2.8)">
    <path id="Tracé_2409" data-name="Tracé 2409" d="M14.733,10.467A3.733,3.733,0,1,0,11,6.733,3.733,3.733,0,0,0,14.733,10.467Zm0-6.4a2.667,2.667,0,1,1-2.667,2.667A2.667,2.667,0,0,1,14.733,4.067Z" transform="translate(-2.8 0)" fill="#ac273e" stroke="#ac273e" stroke-width="0.4"/>
    <path id="Tracé_2410" data-name="Tracé 2410" d="M18.584,21.866a9.152,9.152,0,0,0-13.3,0A1.067,1.067,0,0,0,5,22.6V25.4a1.067,1.067,0,0,0,1.067,1.067H17.8A1.067,1.067,0,0,0,18.867,25.4V22.6a1.067,1.067,0,0,0-.283-.731ZM17.8,25.4H6.067V22.591a8.091,8.091,0,0,1,11.733,0Z" transform="translate(0 -7.468)" fill="#ac273e" stroke="#ac273e" stroke-width="0.4"/>
  </g>
</svg>
