<svg xmlns="http://www.w3.org/2000/svg" width="20.225" height="14.63" viewBox="0 0 20.225 14.63">
  <g id="book_1_" data-name="book (1)" transform="translate(0.2 -58.103)">
    <g id="Groupe_674" data-name="Groupe 674" transform="translate(0 58.303)">
      <path id="Tracé_2493" data-name="Tracé 2493" d="M19.441,59.487H18.134v-.446a.384.384,0,0,0-.277-.384,10.824,10.824,0,0,0-2.771-.354,7.146,7.146,0,0,0-5.18,1.921A7.071,7.071,0,0,0,4.727,58.3a10.824,10.824,0,0,0-2.771.354.384.384,0,0,0-.277.384v.442H.384A.384.384,0,0,0,0,59.867V72.141a.383.383,0,0,0,.573.334,13.549,13.549,0,0,1,9.246-.769h.092a.385.385,0,0,0,.092,0,13.319,13.319,0,0,1,9.246.769.384.384,0,0,0,.576-.33V59.871A.384.384,0,0,0,19.441,59.487ZM.769,71.53V60.256h.918v9.638a.384.384,0,0,0,.442.384,16.816,16.816,0,0,1,2.4-.192,9.968,9.968,0,0,1,3.282.5A14.127,14.127,0,0,0,.769,71.53Zm3.762-2.21a16.909,16.909,0,0,0-2.091.134V59.345a10.6,10.6,0,0,1,2.279-.254,6.274,6.274,0,0,1,4.8,1.883l.012,9.573A8.983,8.983,0,0,0,4.531,69.321Zm5.764-8.347a6.331,6.331,0,0,1,4.8-1.883,10.645,10.645,0,0,1,2.279.254V69.455a16.905,16.905,0,0,0-2.079-.138,9.058,9.058,0,0,0-5,1.226ZM19.053,71.53a14.13,14.13,0,0,0-7.059-.949,9.992,9.992,0,0,1,3.3-.5,16.811,16.811,0,0,1,2.417.188.384.384,0,0,0,.442-.384V60.256h.918Z" transform="translate(0 -58.303)" fill="#8d1e32" stroke="#8d1e32" stroke-width="0.4"/>
    </g>
  </g>
</svg>
