<svg xmlns="http://www.w3.org/2000/svg" xmlns:xlink="http://www.w3.org/1999/xlink" width="26" height="26" viewBox="0 0 26 26">
  <defs>
    <clipPath id="clip-path">
      <rect id="Rectangle_482" data-name="Rectangle 482" width="26" height="26" transform="translate(1362 1129)" fill="#fff" stroke="#707070" stroke-width="1"/>
    </clipPath>
  </defs>
  <g id="Groupe_de_masques_10" data-name="Groupe de masques 10" transform="translate(-1362 -1129)" clip-path="url(#clip-path)">
    <g id="Layer_2" data-name="Layer 2" transform="translate(1362.027 1129)">
      <g id="Layer_1" data-name="Layer 1">
        <g id="Attach">
          <path id="_4" data-name="4" d="M12.429,26H3.089A3.089,3.089,0,0,1,0,22.911V3.089A3.089,3.089,0,0,1,3.089,0h14.3a3.089,3.089,0,0,1,3.089,3.089V10.5a.7.7,0,1,1-1.39,0V3.089a1.674,1.674,0,0,0-1.68-1.674H3.089A1.674,1.674,0,0,0,1.4,3.089V22.93A1.674,1.674,0,0,0,3.089,24.6h9.34a.7.7,0,0,1,0,1.4Z"/>
          <path id="_3" data-name="3" d="M16.092,7.462H4.355a.7.7,0,1,1,0-1.39H16.092a.7.7,0,0,1,0,1.39Z"/>
          <path id="_2" data-name="2" d="M10.829,12.886H4.373a.7.7,0,0,1,0-1.4h6.455a.7.7,0,0,1,0,1.4Z"/>
          <path id="_1" data-name="1" d="M17.463,25.944a3.818,3.818,0,0,1-2.724-1.124,3.861,3.861,0,0,1,0-5.448l5.72-5.745a2.341,2.341,0,0,1,3.311,3.311L19.508,21.2a.69.69,0,1,1-.976-.976L22.8,15.956A.963.963,0,0,0,21.435,14.6l-5.72,5.745a2.472,2.472,0,1,0,3.5,3.5l5.56-5.56a.686.686,0,0,1,.976,0,.7.7,0,0,1,0,.976l-5.56,5.56a3.836,3.836,0,0,1-2.724,1.13Z"/>
        </g>
      </g>
    </g>
  </g>
</svg>
