<svg xmlns="http://www.w3.org/2000/svg" width="14.062" height="14.015" viewBox="0 0 14.062 14.015">
  <g id="logout_1_" data-name="logout (1)" transform="translate(0 -0.85)">
    <g id="Groupe_676" data-name="Groupe 676" transform="translate(0 0.85)">
      <g id="Groupe_675" data-name="Groupe 675">
        <path id="Tracé_2494" data-name="Tracé 2494" d="M7.007,13.7H1.752a.584.584,0,0,1-.584-.584V2.6a.584.584,0,0,1,.584-.584H7.007a.584.584,0,0,0,0-1.168H1.752A1.754,1.754,0,0,0,0,2.6V13.113a1.754,1.754,0,0,0,1.752,1.752H7.007a.584.584,0,1,0,0-1.168Z" transform="translate(0 -0.85)" fill="#8d1e32"/>
      </g>
    </g>
    <g id="Groupe_678" data-name="Groupe 678" transform="translate(4.672 3.77)">
      <g id="Groupe_677" data-name="Groupe 677">
        <path id="Tracé_2495" data-name="Tracé 2495" d="M179.316,110.837l-3.55-3.5a.584.584,0,0,0-.82.832l2.537,2.5h-6.8a.584.584,0,0,0,0,1.168h6.8l-2.537,2.5a.584.584,0,1,0,.82.832l3.55-3.5a.584.584,0,0,0,0-.831Z" transform="translate(-170.1 -107.165)" fill="#8d1e32"/>
      </g>
    </g>
  </g>
</svg>
