<svg xmlns="http://www.w3.org/2000/svg" width="19.222" height="18.595" viewBox="0 0 19.222 18.595">
  <g id="Page-1" transform="translate(0.2 0.2)">
    <g id="_014---Walet-Server" data-name="014---Walet-Server">
      <path id="Shape" d="M17.568,3.8V.941A.941.941,0,0,0,16.627,0H3.451a2.2,2.2,0,0,0-2.2,2.2V7.975C.5,8.231,0,8.6,0,9.1v7.529C0,17.7,2.358,18.2,4.549,18.2S9.1,17.7,9.1,16.627v-.314h8.156a1.57,1.57,0,0,0,1.569-1.569V5.333A1.571,1.571,0,0,0,17.568,3.8ZM3.451.627H16.627a.314.314,0,0,1,.314.314v.941H2.823a.314.314,0,1,0,0,.627H16.94V3.764H3.451a1.569,1.569,0,1,1,0-3.137Zm1.1,7.529c2.587,0,3.921.659,3.921.941s-1.334.941-3.921.941S.627,9.38.627,9.1,1.962,8.156,4.549,8.156ZM8.47,10.98c0,.282-1.334.941-3.921.941S.627,11.262.627,10.98V9.945a8.832,8.832,0,0,0,3.921.722A8.832,8.832,0,0,0,8.47,9.945ZM4.549,12.548a8.832,8.832,0,0,0,3.921-.722v1.035c0,.282-1.334.941-3.921.941S.627,13.144.627,12.862V11.827A8.832,8.832,0,0,0,4.549,12.548ZM.627,13.711a8.856,8.856,0,0,0,3.921.72,8.832,8.832,0,0,0,3.921-.722v1.035c0,.282-1.334.941-3.921.941S.627,15.027.627,14.744ZM8.47,16.627c0,.282-1.334.941-3.921.941S.627,16.909.627,16.627V15.591a8.832,8.832,0,0,0,3.921.722,8.832,8.832,0,0,0,3.921-.722Zm8.784-.941H9.1V9.1c0-1.078-2.358-1.569-4.549-1.569A12.4,12.4,0,0,0,1.882,7.8V3.73a2.189,2.189,0,0,0,1.569.662h13.8a.941.941,0,0,1,.941.941V8.47H16.627a1.569,1.569,0,1,0,0,3.137H18.2v3.137a.941.941,0,0,1-.941.941ZM18.2,10.98H16.627a.941.941,0,1,1,0-1.882H18.2Z" fill="#8d1e32" stroke="#8d1e32" stroke-width="0.4"/>
      <ellipse id="Oval" cy="0.5" ry="0.5" transform="translate(16.558 9.705)" fill="#8d1e32" stroke="#8d1e32" stroke-width="0.4"/>
      <path id="Shape-2" data-name="Shape" d="M33.941,16h-.627a.314.314,0,0,0,0,.627h.627a.314.314,0,1,0,0-.627Z" transform="translate(-22.648 -10.981)" fill="#8d1e32" stroke="#8d1e32" stroke-width="0.4"/>
      <path id="Shape-3" data-name="Shape" d="M44.333,16.314A.314.314,0,0,0,44.019,16H39.314a.314.314,0,0,0,0,.627h4.706A.314.314,0,0,0,44.333,16.314Z" transform="translate(-26.765 -10.981)" fill="#8d1e32" stroke="#8d1e32" stroke-width="0.4"/>
    </g>
  </g>
</svg>
