<svg xmlns="http://www.w3.org/2000/svg" width="17" height="17" viewBox="0 0 17 17">
  <g id="search-file" transform="translate(-2.25 -2.25)">
    <path id="Tracé_2488" data-name="Tracé 2488" d="M2.25,4.212A1.962,1.962,0,0,1,4.212,2.25H17.288A1.962,1.962,0,0,1,19.25,4.212V10.75a.654.654,0,0,1-1.308,0V4.212a.654.654,0,0,0-.654-.654H4.212a.654.654,0,0,0-.654.654V17.288a.654.654,0,0,0,.654.654H10.75a.654.654,0,0,1,0,1.308H4.212A1.962,1.962,0,0,1,2.25,17.288Z" fill="#8d1e32" fill-rule="evenodd"/>
    <path id="Tracé_2489" data-name="Tracé 2489" d="M15.529,13.561A1.967,1.967,0,1,0,17.5,15.529,1.967,1.967,0,0,0,15.529,13.561ZM12.25,15.529a3.279,3.279,0,1,1,3.279,3.279A3.279,3.279,0,0,1,12.25,15.529Z" transform="translate(-1.306 -1.306)" fill="#8d1e32" fill-rule="evenodd"/>
    <path id="Tracé_2490" data-name="Tracé 2490" d="M17.894,17.5a.656.656,0,0,1,.922-.1L21,19.142a.656.656,0,1,1-.819,1.024L18,18.418a.656.656,0,0,1-.1-.922Z" transform="translate(-1.997 -1.934)" fill="#8d1e32" fill-rule="evenodd"/>
    <path id="Tracé_2491" data-name="Tracé 2491" d="M6.25,7.906A.654.654,0,0,1,6.9,7.25h8.7a.656.656,0,0,1,0,1.311H6.9A.654.654,0,0,1,6.25,7.906Z" transform="translate(-0.503 -0.642)" fill="#8d1e32" fill-rule="evenodd"/>
    <path id="Tracé_2492" data-name="Tracé 2492" d="M6.25,11.906a.656.656,0,0,1,.656-.656h3.5a.656.656,0,0,1,0,1.311h-3.5A.656.656,0,0,1,6.25,11.906Z" transform="translate(-0.517 -1.156)" fill="#8d1e32" fill-rule="evenodd"/>
  </g>
</svg>
