<svg xmlns="http://www.w3.org/2000/svg" xmlns:xlink="http://www.w3.org/1999/xlink" width="35" height="35" viewBox="0 0 35 35">
  <defs>
    <clipPath id="clip-path">
      <rect id="Rectangle_478" data-name="Rectangle 478" width="35" height="35" transform="translate(1007 114)" fill="#00a700" stroke="#707070" stroke-width="1"/>
    </clipPath>
  </defs>
  <g id="Groupe_de_masques_7" data-name="Groupe de masques 7" transform="translate(-1007 -114)" clip-path="url(#clip-path)">
    <g id="_38-Checkout" data-name="38-Checkout" transform="translate(1004.503 111.51)">
      <path id="Tracé_2549" data-name="Tracé 2549" d="M13,26.217H30.475a3.745,3.745,0,0,0,3.633-2.834l3.346-13.1a1.284,1.284,0,1,0-2.5-.6L31.723,22.772a1.248,1.248,0,0,1-1.248.949h-17L9.164,5.381A3.745,3.745,0,0,0,5.518,2.5H3.745a1.248,1.248,0,1,0,0,2.5H5.518a1.248,1.248,0,0,1,1.248.961l4.345,18.627L9.626,26.068a3.745,3.745,0,0,0,2.647,6.392,3.745,3.745,0,1,0,7.266,1.248A3.471,3.471,0,0,0,19.3,32.46h4.607a3.745,3.745,0,1,0,7.041,0h2.759a1.248,1.248,0,1,0,0-2.5H12.272a1.248,1.248,0,0,1-.886-2.135Zm4.082,7.491A1.248,1.248,0,1,1,15.83,32.46,1.248,1.248,0,0,1,17.079,33.708Zm11.636,0a1.248,1.248,0,1,1-1.248-1.248A1.248,1.248,0,0,1,28.714,33.708Z" fill="#00a700"/>
      <path id="Tracé_2550" data-name="Tracé 2550" d="M22.472,19.975a8.739,8.739,0,1,0-8.739-8.739A8.739,8.739,0,0,0,22.472,19.975Zm0-14.981a6.242,6.242,0,1,1-6.242,6.242A6.242,6.242,0,0,1,22.472,4.994Z" fill="#00a700"/>
      <path id="Tracé_2551" data-name="Tracé 2551" d="M21.224,14.981a1.248,1.248,0,0,0,.886-.362l4.332-4.332a1.254,1.254,0,1,0-1.773-1.773l-3.446,3.458L19.613,10.35a1.254,1.254,0,0,0-1.773,1.773l2.5,2.5a1.248,1.248,0,0,0,.886.362Z" fill="#00a700"/>
    </g>
  </g>
</svg>
