<svg xmlns="http://www.w3.org/2000/svg" width="66.192" height="66.223" viewBox="0 0 66.192 66.223">
  <g id="Groupe_21" data-name="Groupe 21" transform="translate(0.5 0.5)">
    <path id="Tracé_2" data-name="Tracé 2" d="M35.588,2.994A32.612,32.612,0,1,0,68.2,35.606,32.632,32.632,0,0,0,35.588,2.994Zm0,2.249a30.341,30.341,0,0,1,24.976,47.6,30.763,30.763,0,0,0-49.926,0,30.349,30.349,0,0,1,24.949-47.6Zm0,60.726A30.27,30.27,0,0,1,12.062,54.744a28.5,28.5,0,0,1,47.08,0A30.316,30.316,0,0,1,35.588,65.969Z" transform="translate(-3.008 -2.994)" fill="#e30813" stroke="#e30813" stroke-width="1"/>
    <path id="Tracé_3" data-name="Tracé 3" d="M33.132,33.595A10.383,10.383,0,1,0,22.765,23.2,10.41,10.41,0,0,0,33.132,33.595Zm0-18.516A8.134,8.134,0,1,1,25.014,23.2,8.143,8.143,0,0,1,33.132,15.079Z" transform="translate(-0.552 -1.771)" fill="#e30813" stroke="#e30813" stroke-width="1"/>
  </g>
</svg>
