<svg xmlns="http://www.w3.org/2000/svg" width="76.017" height="54.278" viewBox="0 0 76.017 54.278">
  <path id="Tracé_21" data-name="Tracé 21" d="M81.429,37.633l-5.311-4.853a1.676,1.676,0,0,0-.367-.247V26.152A3.32,3.32,0,0,0,72.3,23H9.364a3.32,3.32,0,0,0-3.449,3.152V63.97a3.32,3.32,0,0,0,3.449,3.152H36.4a6.955,6.955,0,0,0-.788,1.447L32.825,76.2c-.241.659.026,1.077.6,1.077a1.692,1.692,0,0,0,.485-.08l8.352-2.544a8.89,8.89,0,0,0,2.856-1.612L51.6,67.122H72.3a3.32,3.32,0,0,0,3.449-3.152V45.051l5.678-5.189A1.486,1.486,0,0,0,81.429,37.633ZM8.5,63.97V26.152a.839.839,0,0,1,.862-.788H72.3a.839.839,0,0,1,.862.788v7.1l-2,1.828L70.06,34.069a3.229,3.229,0,0,0-4.269,0l-10.4,9.507a1.111,1.111,0,0,0,0,1.671,1.38,1.38,0,0,0,1.829,0l10.4-9.508a.467.467,0,0,1,.61,0l1.105,1.01L38.688,64.758H9.365A.839.839,0,0,1,8.5,63.97Zm36.036,6.261-4.091-3.739L67.29,41.963,71.381,45.7ZM41.449,72.41,36.37,73.957l1.692-4.643a5.122,5.122,0,0,1,.629-1.085l3.945,3.605A6,6,0,0,1,41.449,72.41Zm31.716-8.44a.839.839,0,0,1-.862.788H54.187L73.165,47.414Zm.045-19.94-4.092-3.739L74.9,35.009l4.092,3.739Z" transform="translate(-5.915 -23)" fill="#e30813"/>
</svg>
