<svg xmlns="http://www.w3.org/2000/svg" width="88.011" height="63.128" viewBox="0 0 88.011 63.128">
  <g id="Groupe_22" data-name="Groupe 22" transform="translate(0.511 0.5)">
    <path id="Tracé_22" data-name="Tracé 22" d="M70.722,64.885a1.1,1.1,0,1,1-1.1-1.1A1.1,1.1,0,0,1,70.722,64.885ZM88,62.1a107.934,107.934,0,0,0-13.275.659,1.1,1.1,0,1,0,.112,2.2h.114a105.714,105.714,0,0,1,13-.659,1.026,1.026,0,0,0,1.123-1.075A1.1,1.1,0,0,0,88,62.1Zm3.207-35.567V56.692a1.1,1.1,0,0,1-1.2,1.1,122.066,122.066,0,0,0-26.943,2.127l-5.87,5.4a1.061,1.061,0,0,1-.22.158,60.725,60.725,0,0,1-19.84,6.358c-1.22.112-2.637.163-4.2.163A262.648,262.648,0,0,1,5.16,69.65a1.1,1.1,0,0,1,.294-2.18c.22.033,22.29,3.029,31.475,2.169A59.214,59.214,0,0,0,55.816,63.6l3.246-2.987-.31.055a95.735,95.735,0,0,1-17.323,1.758,36.986,36.986,0,0,1-8.6-.76A1.1,1.1,0,0,1,32,60.6v-14a21.574,21.574,0,0,1-12.9,6.525,1.154,1.154,0,0,1-.174.013,1.1,1.1,0,0,1-.171-2.182,18.785,18.785,0,0,0,12.167-6.495,1.1,1.1,0,0,1,1.341-.387l12.145,5.251a3.976,3.976,0,0,0,4.932-1.488,1.426,1.426,0,0,0-.459-2L34.262,37.017a9.037,9.037,0,0,0-1.585-.741h0a8.965,8.965,0,0,0-2.58-.543,44.693,44.693,0,0,0-9.55.112A131.436,131.436,0,0,0,5.936,45.1a1.1,1.1,0,0,1-1.257-1.8c1.29-.9,12.684-8.82,15.246-9.572a41.939,41.939,0,0,1,10.286-.2A11.243,11.243,0,0,1,32,33.793V29.138a1.1,1.1,0,0,1,1.336-1.073A74.988,74.988,0,0,0,64.9,26.916C82,22.386,90.161,25.377,90.5,25.5a1.1,1.1,0,0,1,.708,1.026Zm-2.2.824c-2.268-.571-9.987-1.9-23.548,1.688A76.832,76.832,0,0,1,34.2,30.469v4.044a11.039,11.039,0,0,1,1.2.624l14.616,8.813a3.622,3.622,0,0,1,1.167,5.084,6.154,6.154,0,0,1-7.644,2.308L34.2,47.3V59.7c2.455.42,10.431,1.336,24.15-1.2A142.949,142.949,0,0,1,89.01,55.525Zm-42.653-5.84a1.1,1.1,0,0,0,1.1-1.1v-2.1a1.1,1.1,0,0,0-2.2,0v2.1A1.1,1.1,0,0,0,46.356,21.515Zm0-7.35a1.1,1.1,0,0,0,1.1-1.1v-2.1a1.1,1.1,0,1,0-2.2,0v2.1A1.1,1.1,0,0,0,46.356,14.166Zm-3.3,2.611h.681a1.1,1.1,0,0,0,0-2.2H43.06a1.1,1.1,0,0,0,0,2.2Zm5.912,0h.681a1.1,1.1,0,1,0,0-2.2h-.681a1.1,1.1,0,0,0,0,2.2ZM41.018,54.709q-1.475.059-2.637.057a1.1,1.1,0,1,0,0,2.2c.8,0,1.7-.018,2.719-.059a1.1,1.1,0,0,0,1.053-1.143,1.084,1.084,0,0,0-1.134-1.053ZM80.913,30.586a1.1,1.1,0,0,0,1.1,1.1c1.145,0,2.125.051,2.943.123a.744.744,0,0,0,.1,0,1.1,1.1,0,1,0,.1-2.2c-.879-.077-1.919-.132-3.139-.132a1.1,1.1,0,0,0-1.1,1.108ZM67.385,43.252c0,4.275-2.857,7.752-6.354,7.752s-6.352-3.477-6.352-7.752,2.857-7.75,6.352-7.75,6.354,3.477,6.354,7.75Zm-2.2,0c0-3.059-1.864-5.552-4.156-5.552s-4.154,2.492-4.154,5.552,1.864,5.554,4.154,5.554,4.156-2.492,4.156-5.554Z" transform="translate(-4.207 -9.867)" fill="#e30813" stroke="#e30813" stroke-width="1"/>
  </g>
</svg>
